#N canvas 388 62 792 914 10;
#X declare -lib cyclone;
#X declare -lib zexy;
#X declare -path cyclone;
#X declare -path zexy;
#X declare -lib iemlib;
#X declare -path iemlib;
#X obj 262 836 dac~;
#X obj 223 259 tabread array1;
#X floatatom 223 282 5 0 0 0 - - - 0;
#X floatatom 235 236 5 0 0 0 - - - 0;
#X obj 235 32 metro 1000;
#X obj 217 10 tgl 15 0 empty empty empty 17 7 0 10 #fcfcfc #000000 #000000 0 1;
#X obj 352 80 s clocktime;
#X obj 235 56 s StableClock;
#X obj 260 299 r clocktime;
#X text 712 35 dsp ON/OFF;
#X floatatom 668 118 5 0 0 0 - - - 0;
#X obj 665 54 tgl 15 1 empty dsp_tgl empty 8 -8 0 10 #fcfcfc #000000 #000000 1 1;
#X obj 224 548 operador;
#X obj 223 207 randomtonic;
#X msg 507 31 3000;
#X floatatom 375 60 5 0 0 0 - - - 0;
#X obj 217 79 clockdivider;
#X floatatom 259 182 5 0 22 2 Max - - 0;
#X floatatom 221 182 5 0 22 2 Offset - - 0;
#X text 235 150 Notas;
#X obj 303 182 b;
#X obj 376 836 dac~;
#X obj 337 259 tabread array1;
#X floatatom 337 282 5 0 0 0 - - - 0;
#X floatatom 349 236 5 0 0 0 - - - 0;
#X obj 374 299 r clocktime;
#X obj 338 548 operador;
#X obj 337 207 randomtonic;
#X floatatom 373 182 5 0 22 2 Max - - 0;
#X floatatom 335 182 5 0 22 2 Offset - - 0;
#X text 349 150 Notas;
#X obj 356 524 * 0.5;
#X obj 417 182 b;
#X obj 338 499 * 0.51;
#X obj 496 837 dac~;
#X obj 457 260 tabread array1;
#X floatatom 457 283 5 0 0 0 - - - 0;
#X floatatom 469 237 5 0 0 0 - - - 0;
#X obj 494 300 r clocktime;
#X obj 457 549 operador;
#X obj 457 208 randomtonic;
#X floatatom 494 183 5 0 22 2 Max - - 0;
#X floatatom 455 183 5 0 22 2 Offset - - 0;
#X text 469 151 Notas;
#X obj 475 525 * 0.5;
#X obj 537 183 b;
#X obj 610 837 dac~;
#X obj 571 260 tabread array1;
#X floatatom 571 283 5 0 0 0 - - - 0;
#X floatatom 583 237 5 0 0 0 - - - 0;
#X obj 608 300 r clocktime;
#X obj 572 549 operador;
#X obj 571 208 randomtonic;
#X floatatom 607 183 5 0 22 2 Max - - 0;
#X floatatom 569 183 5 0 22 2 Offset - - 0;
#X text 583 151 Notas;
#X obj 651 183 b;
#X msg 376 28 10000;
#X obj 572 500 * 2.01;
#X msg 465 30 5000;
#X obj 590 525 * 0.35;
#X msg 551 30 1000;
#X obj 156 835 dac~;
#X obj 117 258 tabread array1;
#X floatatom 117 281 5 0 0 0 - - - 0;
#X floatatom 129 235 5 0 0 0 - - - 0;
#X obj 154 298 r clocktime;
#X obj 113 546 operador;
#X obj 117 206 randomtonic;
#X floatatom 155 182 5 0 22 2 Max - - 0;
#X floatatom 115 181 5 0 22 2 Offset - - 0;
#X text 129 149 Notas;
#X obj 197 181 b;
#X obj 44 835 dac~;
#X obj 5 258 tabread array1;
#X floatatom 5 281 5 0 0 0 - - - 0;
#X floatatom 17 235 5 0 0 0 - - - 0;
#X obj 42 298 r clocktime;
#X obj 4 539 operador;
#X obj 5 206 randomtonic;
#X floatatom 41 181 5 0 22 2 Max - - 0;
#X floatatom 3 181 5 0 22 2 Offset - - 0;
#X text 17 149 Notas;
#X obj 85 181 b;
#X obj 38 324 decay_env;
#X obj 721 838 dac~;
#X obj 682 261 tabread array1;
#X floatatom 682 284 5 0 0 0 - - - 0;
#X floatatom 694 238 5 0 0 0 - - - 0;
#X obj 719 301 r clocktime;
#X obj 683 550 operador;
#X obj 682 209 randomtonic;
#X floatatom 718 184 5 0 22 2 Max - - 0;
#X floatatom 680 184 5 0 22 2 Offset - - 0;
#X text 694 152 Notas;
#X obj 762 184 b;
#X obj 701 526 * 0.35;
#X obj 490 326 decay_env;
#X obj 604 326 decay_env;
#X obj 256 325 decay_env;
#X obj 370 325 decay_env;
#X obj 150 324 decay_env;
#X obj 715 327 decay_env;
#X obj 375 4 loadbang;
#X obj 6 498 * 0.51;
#X obj 224 499 * 0.511;
#X obj 118 498 * 0.512;
#X msg 423 29 9000;
#X obj 458 500 * 1.02;
#X obj 683 501 * 2.04;
#N canvas 1226 25 525 776 hide 0;
#X obj 132 58 inlet;
#X obj 130 630 outlet;
#N canvas 0 22 450 278 (subpatch) 0;
#X array array1 22 float 3;
#A 0 301 321.5 354 414 443.5 475 526 602 643 708 828 887 950 1052 1204 1286 1416 1656 1774 1900 2104 2408;
#X coords 0 2408 22 301 200 140 1 0 0;
#X restore 196 168 graph;
#X obj 169 372 tabset array1;
#X msg 170 327 301 321.5 354 414 443.5 475 526 602 643 708 828 887 950 1052 1204 1286 1416 1656 1774 1900 2104 2408;
#X obj 154 491 declare -lib cyclone;
#X obj 163 514 declare -lib zexy;
#X obj 291 494 declare -path cyclone;
#X obj 284 523 declare -path zexy;
#X obj 134 548 declare -lib iemlib;
#X obj 288 556 declare -path iemlib;
#X obj 121 107 dsp;
#X floatatom 136 141 5 0 0 0 - - - 0;
#X connect 0 0 11 0;
#X connect 4 0 3 0;
#X connect 11 0 1 0;
#X connect 11 1 12 0;
#X restore 664 81 pd hide;
#X obj 135 523 * 1.1;
#X obj 23 523 * 1.11;
#X obj 241 524 * 0.57;
#X connect 1 0 2 0;
#X connect 2 0 105 0;
#X connect 4 0 7 0;
#X connect 5 0 4 0;
#X connect 5 0 16 0;
#X connect 8 0 99 1;
#X connect 11 0 110 0;
#X connect 12 0 0 0;
#X connect 12 1 0 1;
#X connect 13 0 1 0;
#X connect 13 0 3 0;
#X connect 14 0 15 0;
#X connect 15 0 4 1;
#X connect 15 0 6 0;
#X connect 15 0 16 1;
#X connect 16 0 83 0;
#X connect 16 1 72 0;
#X connect 16 2 20 0;
#X connect 16 3 56 0;
#X connect 16 4 32 0;
#X connect 16 5 45 0;
#X connect 16 6 95 0;
#X connect 17 0 13 2;
#X connect 18 0 13 1;
#X connect 20 0 13 0;
#X connect 20 0 99 0;
#X connect 22 0 23 0;
#X connect 23 0 33 0;
#X connect 25 0 100 1;
#X connect 26 0 21 0;
#X connect 26 1 21 1;
#X connect 27 0 22 0;
#X connect 27 0 24 0;
#X connect 28 0 27 2;
#X connect 29 0 27 1;
#X connect 31 0 26 1;
#X connect 32 0 27 0;
#X connect 32 0 100 0;
#X connect 33 0 31 0;
#X connect 33 0 26 0;
#X connect 35 0 36 0;
#X connect 36 0 108 0;
#X connect 38 0 97 1;
#X connect 39 0 34 0;
#X connect 39 1 34 1;
#X connect 40 0 35 0;
#X connect 40 0 37 0;
#X connect 41 0 40 2;
#X connect 42 0 40 1;
#X connect 44 0 39 1;
#X connect 45 0 40 0;
#X connect 45 0 97 0;
#X connect 47 0 48 0;
#X connect 48 0 58 0;
#X connect 50 0 98 1;
#X connect 51 0 46 0;
#X connect 51 1 46 1;
#X connect 52 0 47 0;
#X connect 52 0 49 0;
#X connect 53 0 52 2;
#X connect 54 0 52 1;
#X connect 56 0 52 0;
#X connect 56 0 98 0;
#X connect 57 0 15 0;
#X connect 58 0 60 0;
#X connect 58 0 51 0;
#X connect 59 0 15 0;
#X connect 60 0 51 1;
#X connect 61 0 15 0;
#X connect 63 0 64 0;
#X connect 64 0 106 0;
#X connect 66 0 101 1;
#X connect 67 0 62 0;
#X connect 67 1 62 1;
#X connect 68 0 63 0;
#X connect 68 0 65 0;
#X connect 69 0 68 2;
#X connect 70 0 68 1;
#X connect 72 0 68 0;
#X connect 72 0 101 0;
#X connect 74 0 75 0;
#X connect 75 0 104 0;
#X connect 77 0 84 1;
#X connect 78 0 73 0;
#X connect 78 1 73 1;
#X connect 79 0 74 0;
#X connect 79 0 76 0;
#X connect 80 0 79 2;
#X connect 81 0 79 1;
#X connect 83 0 79 0;
#X connect 83 0 84 0;
#X connect 84 0 78 3;
#X connect 86 0 87 0;
#X connect 87 0 109 0;
#X connect 89 0 102 1;
#X connect 90 0 85 0;
#X connect 90 1 85 1;
#X connect 91 0 86 0;
#X connect 91 0 88 0;
#X connect 92 0 91 2;
#X connect 93 0 91 1;
#X connect 95 0 91 0;
#X connect 95 0 102 0;
#X connect 96 0 90 1;
#X connect 97 0 39 3;
#X connect 98 0 51 3;
#X connect 99 0 12 3;
#X connect 100 0 26 3;
#X connect 101 0 67 3;
#X connect 102 0 90 3;
#X connect 103 0 57 0;
#X connect 104 0 78 0;
#X connect 104 0 112 0;
#X connect 105 0 12 0;
#X connect 105 0 113 0;
#X connect 106 0 67 0;
#X connect 106 0 111 0;
#X connect 107 0 15 0;
#X connect 108 0 44 0;
#X connect 108 0 39 0;
#X connect 109 0 96 0;
#X connect 109 0 90 0;
#X connect 110 0 10 0;
#X connect 111 0 67 1;
#X connect 112 0 78 1;
#X connect 113 0 12 1;
