#N canvas 160 136 778 651 10;
#X obj 99 13 inlet;
#X obj 152 64 metro 1000;
#X floatatom 210 38 5 500 10000 0 - - -;
#X obj 152 34 tgl 15 0 empty empty empty 17 7 0 10 -262144 -1 -1 1
1;
#X obj 128 173 counter;
#X obj 283 152 / 2;
#X obj 342 151 / 4;
#X obj 372 151 / 5;
#X obj 402 151 / 6;
#X obj 459 151 / 8;
#X obj 245 278 mod;
#X obj 315 275 mod;
#X obj 353 275 mod;
#X obj 382 275 mod;
#X obj 452 272 mod;
#X obj 128 128 metro 1;
#X obj 244 369 sel 0;
#X obj 316 367 sel 0;
#X obj 355 367 sel 0;
#X obj 453 365 sel 0;
#X obj 398 367 sel 0;
#X obj 311 152 / 3;
#X obj 281 278 mod;
#X obj 280 369 sel 0;
#X obj 210 10 inlet;
#X obj 224 496 outlet;
#X obj 269 496 outlet;
#X obj 315 496 outlet;
#X obj 360 496 outlet;
#X obj 405 496 outlet;
#X obj 450 496 outlet;
#X text 252 419 :1 :2 :3 :4 :5 :6 :8;
#X obj 200 369 sel 0;
#X obj 177 495 outlet;
#X obj 182 444 b;
#X obj 223 447 b;
#X obj 271 449 b;
#X obj 314 453 b;
#X obj 355 453 b;
#X obj 402 455 b;
#X obj 446 455 b;
#X connect 0 0 3 0;
#X connect 2 0 1 1;
#X connect 2 0 4 4;
#X connect 2 0 5 0;
#X connect 2 0 6 0;
#X connect 2 0 7 0;
#X connect 2 0 8 0;
#X connect 2 0 9 0;
#X connect 2 0 21 0;
#X connect 3 0 1 0;
#X connect 3 0 15 0;
#X connect 4 0 10 0;
#X connect 4 0 11 0;
#X connect 4 0 12 0;
#X connect 4 0 13 0;
#X connect 4 0 14 0;
#X connect 4 0 22 0;
#X connect 4 0 32 0;
#X connect 5 0 10 1;
#X connect 6 0 11 1;
#X connect 7 0 12 1;
#X connect 8 0 13 1;
#X connect 9 0 14 1;
#X connect 10 0 16 0;
#X connect 11 0 17 0;
#X connect 12 0 18 0;
#X connect 13 0 20 0;
#X connect 14 0 19 0;
#X connect 15 0 4 0;
#X connect 16 0 35 0;
#X connect 17 0 37 0;
#X connect 18 0 38 0;
#X connect 19 0 40 0;
#X connect 20 0 39 0;
#X connect 21 0 22 1;
#X connect 22 0 23 0;
#X connect 23 0 36 0;
#X connect 24 0 2 0;
#X connect 32 0 34 0;
#X connect 34 0 33 0;
#X connect 35 0 25 0;
#X connect 36 0 26 0;
#X connect 37 0 27 0;
#X connect 38 0 28 0;
#X connect 39 0 29 0;
#X connect 40 0 30 0;
#X coords 0 -1 1 1 127 40 1 250 400;
