#N canvas 313 25 848 714 10;
#X msg 42 539 0 1000;
#X msg 218 490 set 0 \$1;
#X obj 131 567 line~ 0 1;
#X obj 238 93 vradio 15 1 0 8 empty empty Mute_Chance 0 -8 0 8 #fcfcfc #000000 #000000 0;
#X obj 80 145 random 0;
#X obj 125 124 + 2;
#X obj 79 299 sel 0;
#X msg 106 330 1;
#X msg 79 330 0;
#X obj 259 109 vradio 15 1 0 8 empty empty Decay 0 -8 0 8 #fcfcfc #000000 #000000 0;
#X obj 274 281 / 8;
#X obj 273 259 + 1;
#X obj 240 280 i 1;
#X obj 255 311 -;
#X obj 240 258 b;
#X obj 53 45 inlet;
#X obj 185 48 inlet;
#X text 163 23 clocktime;
#X text 48 26 trigger;
#X obj 254 404 t b f;
#X obj 131 624 outlet~;
#X obj 238 217 bng 15 250 50 0 empty empty empty 17 7 0 10 #000000 #fc0400 #000000;
#X obj 79 249 +;
#X obj 277 214 tgl 15 0 empty empty Inh -2 -5 0 10 #fcfcfc #000000 #000000 0 1;
#X obj 218 461 *;
#X msg 56 404 1 20;
#X msg 89 370 set \$1 20;
#X obj 42 513 del 21;
#X obj 266 29 loadbang;
#X msg 265 54 0;
#X obj 255 338 + 1;
#X connect 0 0 2 0;
#X connect 1 0 0 0;
#X connect 2 0 20 0;
#X connect 3 0 5 0;
#X connect 4 0 22 0;
#X connect 5 0 4 1;
#X connect 6 0 8 0;
#X connect 6 1 21 0;
#X connect 6 1 7 0;
#X connect 7 0 26 0;
#X connect 8 0 26 0;
#X connect 9 0 11 0;
#X connect 9 0 14 0;
#X connect 10 0 13 1;
#X connect 11 0 10 0;
#X connect 12 0 13 0;
#X connect 13 0 30 0;
#X connect 14 0 12 0;
#X connect 15 0 25 0;
#X connect 15 0 4 0;
#X connect 16 0 24 0;
#X connect 19 0 24 0;
#X connect 19 1 24 1;
#X connect 22 0 6 0;
#X connect 23 0 22 1;
#X connect 24 0 1 0;
#X connect 25 0 2 0;
#X connect 25 0 27 0;
#X connect 26 0 25 0;
#X connect 27 0 0 0;
#X connect 28 0 29 0;
#X connect 29 0 3 0;
#X connect 29 0 9 0;
#X connect 30 0 19 0;
#X coords 0 -1 1 1 70 158 2 224 80;
