#N canvas 251 117 700 741 10;
#X obj 85 412 osc~ 440;
#X obj 132 475 *~;
#X obj 62 475 sig~;
#X obj 62 504 +~;
#X obj 62 530 osc~;
#X text 79 15 Carrier;
#X text 125 16 Mod;
#X text 178 15 Amount;
#X obj 83 33 inlet;
#X obj 121 33 inlet;
#X obj 178 33 inlet;
#X obj 70 607 *~;
#X obj 325 470 expr 1 - $f1;
#X obj 262 595 *~;
#X obj 195 594 *~;
#X obj 196 499 line 0 1;
#X obj 325 448 line 0 1;
#X obj 325 378 + 1;
#X obj 325 400 * 0.5;
#X msg 325 425 \$1 50;
#X msg 196 476 \$1 50;
#X obj 239 688 outlet~;
#X obj 293 687 outlet~;
#X obj 404 40 inlet;
#X text 406 18 Pan (-1 \, 1);
#X text 239 15 Nivel (0 \, 1);
#X floatatom 155 208 5 0 0 0 - - - 0;
#X floatatom 156 123 5 0 0 2 ModFreq - - 0;
#X floatatom 112 124 5 0 0 2 Freq - - 0;
#X obj 116 165 vsl 15 128 0 1 0 0 empty empty Level 0 -9 0 10 #606060 #00f8fc #000000 0 1;
#X obj 120 329 hsl 64 15 -1 1 0 0 empty empty Pan -2 -8 0 10 #7c7c7c #00f8fc #000000 0 1;
#X obj 531 17 loadbang;
#X msg 531 52 0;
#X msg 490 44 100;
#X obj 154 286 tgl 15 0 empty empty Mute 17 7 0 10 #fcfcfc #fc0400 #202020 0 1;
#X obj 294 661 *~;
#X obj 239 660 *~;
#X obj 442 428 sel 0 1;
#X obj 442 481 line 1 100;
#X obj 511 480 line 0 100;
#X msg 441 457 1 100;
#X msg 508 455 0 100;
#X obj 350 323 line 0 1;
#X msg 349 222 set \$1 \$2;
#X obj 351 199 pack f f;
#X floatatom 374 165 5 0 0 0 - - - 0;
#X msg 347 254 327.93 15;
#X obj 334 167 t b f;
#X obj 335 37 inlet;
#X msg 562 79 15;
#X text 333 16 glide;
#X obj 207 313 line 0 1;
#X msg 207 291 \$1 50;
#X obj 211 267 +;
#X obj 214 176 t b f;
#X obj 239 33 inlet~;
#X obj 62 568 *~;
#X connect 0 0 1 0;
#X connect 1 0 3 1;
#X connect 2 0 3 0;
#X connect 3 0 4 0;
#X connect 4 0 56 0;
#X connect 8 0 28 0;
#X connect 9 0 27 0;
#X connect 10 0 54 0;
#X connect 11 0 14 0;
#X connect 11 0 13 0;
#X connect 12 0 14 1;
#X connect 13 0 35 0;
#X connect 14 0 36 0;
#X connect 15 0 11 1;
#X connect 16 0 12 0;
#X connect 16 0 13 1;
#X connect 17 0 18 0;
#X connect 18 0 19 0;
#X connect 19 0 16 0;
#X connect 20 0 15 0;
#X connect 23 0 30 0;
#X connect 26 0 53 0;
#X connect 27 0 0 0;
#X connect 28 0 47 0;
#X connect 29 0 20 0;
#X connect 30 0 17 0;
#X connect 31 0 32 0;
#X connect 31 0 33 0;
#X connect 31 0 49 0;
#X connect 32 0 29 0;
#X connect 32 0 30 0;
#X connect 32 0 34 0;
#X connect 32 0 26 0;
#X connect 34 0 37 0;
#X connect 35 0 22 0;
#X connect 36 0 21 0;
#X connect 37 0 40 0;
#X connect 37 1 41 0;
#X connect 38 0 36 1;
#X connect 38 0 35 1;
#X connect 39 0 36 1;
#X connect 39 0 35 1;
#X connect 40 0 38 0;
#X connect 41 0 39 0;
#X connect 42 0 2 0;
#X connect 43 0 46 0;
#X connect 44 0 43 0;
#X connect 45 0 44 1;
#X connect 46 0 42 0;
#X connect 47 0 46 0;
#X connect 47 1 44 0;
#X connect 48 0 45 0;
#X connect 49 0 45 0;
#X connect 51 0 1 1;
#X connect 52 0 51 0;
#X connect 53 0 52 0;
#X connect 54 0 53 0;
#X connect 54 1 53 1;
#X connect 55 0 56 1;
#X connect 56 0 11 0;
#X coords 0 -1 1 1 100 280 2 100 100;
