#N canvas 777 416 450 300 10;
#X obj 80 119 counter 15;
#X floatatom 80 143 5 0 0 0 - - -;
#X obj 79 163 t b f;
#X obj 79 187 random;
#X msg 94 95 2;
#X obj 80 59 inlet;
#X obj 176 230 outlet;
#X obj 122 58 loadbang;
#X obj 264 59 inlet;
#X text 262 40 CounterMax;
#X text 78 42 Clock;
#X obj 198 58 inlet;
#X text 194 37 Nota base;
#X obj 176 202 + 0;
#X connect 0 0 1 0;
#X connect 1 0 2 0;
#X connect 2 0 3 0;
#X connect 2 1 3 1;
#X connect 3 0 13 0;
#X connect 4 0 0 1;
#X connect 5 0 0 0;
#X connect 7 0 4 0;
#X connect 8 0 0 4;
#X connect 11 0 13 1;
#X connect 13 0 6 0;
